<svg width="50" height="50" viewBox="0 0 50 50" fill="none" xmlns="http://www.w3.org/2000/svg">
<path d="M33.9111 9C41.27 9.00006 47.2359 14.9654 47.2363 22.3242V34.5527C47.1967 35.612 47.3454 37.1297 46.3584 38.665C45.3714 40.2004 43.5621 40.7485 41.917 38.3906C41.5817 37.9104 40.7402 37.5742 40.2168 38.3906C38.8459 40.5292 36.3235 40.6389 34.7881 38.3906C34.4004 37.8237 33.3807 37.7672 32.9785 38.3906C31.6348 40.4744 29.1949 40.6389 27.5498 38.3906C27.1658 37.6782 26.2765 37.6232 25.7949 38.3906C24.6252 40.2549 22.8344 40.4748 21.5732 38.8301C20.9214 37.876 20.6837 37.2176 20.5859 35.7188V22.3242C20.5864 14.9654 26.5522 9 33.9111 9Z" fill="#0F62FE"/>
<path d="M33.9667 13.5586C39.1691 13.5586 43.3378 17.5351 43.3378 22.3809C43.3377 27.2265 39.1691 31.2031 33.9667 31.2031C28.7644 31.203 24.5967 27.2264 24.5966 22.3809C24.5966 17.5352 28.7644 13.5587 33.9667 13.5586Z" fill="white" stroke="#0F62FE"/>
<rect x="29.3115" y="22.9883" width="1.52244" height="3.49652" rx="0.76122" fill="#0F62FE" stroke="#0F62FE"/>
<rect x="36.4398" y="22.9883" width="1.52244" height="3.49652" rx="0.76122" fill="#0F62FE" stroke="#0F62FE"/>
<path d="M3.63642 27.1224C3.91671 26.1069 5.01244 25.3808 5.56178 24.9553C7.36015 23.6367 11.3549 20.6994 12.4162 19.9212C13.4775 19.143 14.1373 19.6009 14.3495 19.9212C14.4997 20.0961 15.0097 20.8231 16.1371 22.4298L16.2547 22.5974C17.7669 24.7525 15.9528 24.9868 14.3495 25.319C13.4581 25.5037 13.5678 26.381 14.0613 27.1487L18.4171 33.556C18.7728 34.1338 19.3048 35.6438 17.7353 36.6902C16.2547 37.6772 14.8532 36.5805 14.2485 35.6605C13.4645 34.4675 11.6894 31.7436 10.8617 30.3922C9.84917 28.739 9.63064 28.482 8.4132 29.1777C6.87778 30.055 7.21492 31.9102 6.29219 32.0427C5.36946 32.1753 5.03342 31.8098 4.18155 30.4625C3.32969 29.1152 3.36741 28.097 3.63642 27.1224Z" fill="#0F62FE" stroke="#0F62FE"/>
</svg>
