<svg width="22" height="22" viewBox="0 0 22 22" fill="none" xmlns="http://www.w3.org/2000/svg">
<path d="M11 2.61719C12.1626 2.61719 13.1388 3.45377 15.0908 5.12695L16.1387 6.02441C17.2185 6.94998 17.7584 7.41301 18.0459 8.03809C18.3334 8.66322 18.333 9.37456 18.333 10.7969V15.2393C18.333 17.2147 18.3334 18.2027 17.7197 18.8164C17.106 19.43 16.1179 19.4297 14.1426 19.4297H7.85742C5.88212 19.4297 4.89396 19.43 4.28027 18.8164C3.66659 18.2027 3.66699 17.2147 3.66699 15.2393V10.7969C3.66699 9.37456 3.66658 8.66322 3.9541 8.03809C4.24163 7.41301 4.7815 6.94998 5.86133 6.02441L6.90918 5.12695C8.86123 3.45377 9.83738 2.61719 11 2.61719Z" fill="#8455DF"/>
</svg>
