<svg width="24" height="24" viewBox="0 0 24 24" fill="none" xmlns="http://www.w3.org/2000/svg">
<path d="M12 8.43755V13.1875M3.03283 15.7998C1.96277 17.6703 1.42789 18.6059 1.50781 19.3734C1.57753 20.0428 1.92564 20.6509 2.4652 21.0466C3.08358 21.5 4.15298 21.5 6.29164 21.5H17.7084C19.847 21.5 20.9163 21.5 21.5346 21.0466C22.0742 20.6509 22.4225 20.0428 22.4922 19.3734C22.5721 18.6059 22.0374 17.6703 20.9673 15.7998L15.261 5.82482C14.1909 3.9543 13.6557 3.0192 12.9572 2.70533C12.3479 2.43156 11.6517 2.43156 11.0425 2.70533C10.3442 3.01907 9.80929 3.95418 8.74012 5.82315L3.03283 15.7998ZM12.0598 16.75V16.8688L11.9414 16.869V16.75H12.0598Z" stroke="#EF4444" stroke-opacity="0.7" stroke-width="2.5" stroke-linecap="round" stroke-linejoin="round"/>
</svg>
