<svg width="21" height="21" viewBox="0 0 21 21" fill="none" xmlns="http://www.w3.org/2000/svg">
<path d="M10.5 2.625C14.8492 2.625 18.375 6.15076 18.375 10.5C18.375 14.8492 14.8492 18.375 10.5 18.375C6.15076 18.375 2.625 14.8492 2.625 10.5C2.625 6.15076 6.15076 2.625 10.5 2.625ZM14.6367 6.36328C14.2853 6.01183 13.7148 6.01187 13.3633 6.36328L10.5 9.22656L7.63672 6.36328C7.28524 6.01187 6.71473 6.01183 6.36328 6.36328C6.01183 6.71473 6.01187 7.28524 6.36328 7.63672L9.22656 10.5L6.36328 13.3633C6.01181 13.7148 6.01181 14.2852 6.36328 14.6367C6.71475 14.9882 7.28525 14.9882 7.63672 14.6367L10.5 11.7734L13.3633 14.6367C13.7148 14.9882 14.2852 14.9882 14.6367 14.6367C14.9882 14.2852 14.9882 13.7148 14.6367 13.3633L11.7734 10.5L14.6367 7.63672C14.9881 7.28524 14.9882 6.71473 14.6367 6.36328Z" fill="#9CA3AF"/>
</svg>
