<svg width="99" height="32" viewBox="0 0 99 32" fill="none" xmlns="http://www.w3.org/2000/svg">
<path d="M98.6054 28.2182H93.6774V18.2708H91.1525C90.9294 21.3736 90.2196 23.6855 89.0231 25.2066C87.8265 26.7276 86.2346 27.4881 84.2471 27.4881C82.0771 27.4881 80.3736 26.5653 79.1365 24.7198C77.8994 22.8541 77.2809 20.0351 77.2809 16.263C77.2809 12.4909 77.8994 9.68213 79.1365 7.83664C80.3736 5.97087 82.0771 5.03799 84.2471 5.03799C86.1332 5.03799 87.6744 5.72751 88.871 7.10656C90.0675 8.48561 90.8179 10.5846 91.1221 13.4035H93.6774V4.85547H98.6054V28.2182ZM84.2471 22.7121C84.8961 22.7121 85.4031 22.2355 85.7681 21.2824C86.1332 20.3089 86.3157 18.6358 86.3157 16.263C86.3157 13.9105 86.1332 12.2476 85.7681 11.2741C85.4031 10.3007 84.8961 9.81395 84.2471 9.81395C83.5981 9.81395 83.081 10.3007 82.6957 11.2741C82.3306 12.2476 82.1481 13.9105 82.1481 16.263C82.1481 18.6155 82.3306 20.2785 82.6957 21.2519C83.081 22.2254 83.5981 22.7121 84.2471 22.7121Z" fill="#34166F"/>
<path d="M54.289 14.8651V4.76562H74.3055V14.8651H54.289ZM59.1866 8.81151V10.7888H69.3774V8.81151H59.1866ZM75.5527 20.1886H66.7613V23.0786H61.8028V20.1886H53.0114V15.9298H75.5527V20.1886ZM74.5488 24.0216V28.3108H54.2282V21.375H59.2475V24.0216H74.5488Z" fill="#34166F"/>
<path d="M31.9112 0C39.2701 5.98655e-05 45.2359 5.96541 45.2364 13.3242V25.5527C45.1968 26.612 45.3454 28.1297 44.3585 29.665C43.3714 31.2004 41.5621 31.7485 39.9171 29.3906C39.5818 28.9104 38.7403 28.5742 38.2169 29.3906C36.846 31.5292 34.3235 31.6389 32.7881 29.3906C32.4005 28.8237 31.3808 28.7672 30.9786 29.3906C29.6349 31.4744 27.1949 31.6389 25.5499 29.3906C25.1659 28.6782 24.2766 28.6232 23.795 29.3906C22.6253 31.2549 20.8345 31.4748 19.5733 29.8301C18.9215 28.876 18.6837 28.2176 18.586 26.7188V13.3242C18.5864 5.96537 24.5522 0 31.9112 0Z" fill="#8455DF"/>
<path d="M31.9667 4.55859C37.1692 4.55859 41.3378 8.53511 41.3378 13.3809C41.3377 18.2265 37.1691 22.2031 31.9667 22.2031C26.7645 22.203 22.5967 18.2264 22.5966 13.3809C22.5966 8.5352 26.7644 4.55875 31.9667 4.55859Z" fill="white" stroke="#8455DF"/>
<rect x="27.3116" y="13.9883" width="1.52244" height="3.49652" rx="0.76122" fill="#8455DF" stroke="#8455DF"/>
<rect x="34.4399" y="13.9883" width="1.52244" height="3.49652" rx="0.76122" fill="#8455DF" stroke="#8455DF"/>
<path d="M1.63642 18.1224C1.91671 17.1069 3.01244 16.3808 3.56178 15.9553C5.36015 14.6367 9.35488 11.6994 10.4162 10.9212C11.4775 10.143 12.1373 10.6009 12.3495 10.9212C12.4997 11.0961 13.0097 11.8231 14.1371 13.4298L14.2547 13.5974C15.7669 15.7525 13.9528 15.9868 12.3495 16.319C11.4581 16.5037 11.5678 17.381 12.0613 18.1487L16.4171 24.556C16.7728 25.1338 17.3048 26.6438 15.7353 27.6902C14.2547 28.6772 12.8532 27.5805 12.2485 26.6605C11.4645 25.4675 9.68939 22.7436 8.8617 21.3922C7.84917 19.739 7.63064 19.482 6.4132 20.1777C4.87778 21.055 5.21492 22.9102 4.29219 23.0427C3.36946 23.1753 3.03342 22.8098 2.18155 21.4625C1.32969 20.1152 1.36741 19.097 1.63642 18.1224Z" fill="#8455DF" stroke="#8455DF"/>
</svg>
